<svg xmlns="http://www.w3.org/2000/svg" width="95.441" height="98.975" viewBox="0 0 95.441 98.975"><g id="Group_65" data-name="Group 65" transform="translate(-2949.319 266.544)"><g id="Group_1" data-name="Group 1" transform="translate(2949.319 -263.01)"><path id="Path_3" data-name="Path 3" d="M97.9,114.458a47.721,47.721,0,1,1,0-95.441,48.555,48.555,0,0,1,7.958.661l-.684,4.08a44.071,44.071,0,0,0-7.274-.6,43.583,43.583,0,1,0,0,87.167Z" transform="translate(-50.184 -19.017)" fill="#686e7b"></path></g><g id="Group_2" data-name="Group 2" transform="translate(2961.38 -250.949)"><path id="Path_4" data-name="Path 4" d="M87.943,92.43a35.644,35.644,0,1,1,35.189-29.868l-4.08-.667A31.525,31.525,0,1,0,87.943,88.3Z" transform="translate(-52.283 -21.116)" fill="#686e7b"></path></g><g id="Group_3" data-name="Group 3" transform="translate(2997.04 -266.544)"><path id="Path_5" data-name="Path 5" d="M64.643,22.361l.276-3.959L58.489,24l5.6,6.43.27-3.936a43.568,43.568,0,0,1-5.867,86.742v4.131a47.7,47.7,0,0,0,6.154-95.01Z" transform="translate(-58.489 -18.402)" fill="#009ede"></path><path id="Path_6" data-name="Path 6" d="M58.489,58.845v4.131a35.431,35.431,0,0,0,35.1-29.466l3.953.362-5.459-6.55-6.55,5.453,3.919.356A31.319,31.319,0,0,1,58.489,58.845Z" transform="translate(-58.489 23.932)" fill="#009ede"></path></g></g></svg>